<?xml version="1.0" standalone="no"?>
<!DOCTYPE svg PUBLIC "-//W3C//DTD SVG 20010904//EN"
 "http://www.w3.org/TR/2001/REC-SVG-20010904/DTD/svg10.dtd">
<svg version="1.0" xmlns="http://www.w3.org/2000/svg"
 width="500.000000pt" height="500.000000pt" viewBox="0 0 500.000000 500.000000"
 preserveAspectRatio="xMidYMid meet">
<metadata>
Created by potrace 1.14, written by Peter Selinger 2001-2017
</metadata>
<g transform="translate(0.000000,500.000000) scale(0.100000,-0.100000)"
fill="#000000" stroke="none">
<path d="M2050 2820 l0 -120 -35 0 -35 0 0 65 0 65 -60 0 -60 0 0 -64 0 -65
-107 2 c-99 2 -111 0 -141 -22 -19 -13 -35 -35 -39 -52 l-5 -28 -22 32 c-47
71 -159 97 -243 56 -66 -32 -96 -78 -101 -153 -4 -74 16 -118 74 -159 67 -47
170 -48 237 -3 31 21 35 22 44 7 13 -21 77 -41 129 -41 101 0 154 40 154 117
0 55 -36 96 -97 112 -22 6 -46 18 -52 25 -19 23 17 38 62 25 19 -5 39 -9 44
-8 4 1 20 1 36 0 l27 -1 1 -82 c0 -103 14 -146 55 -170 28 -16 46 -18 143 -12
l111 7 0 112 c0 94 3 114 18 127 31 28 57 30 85 7 26 -20 27 -23 27 -135 l0
-114 60 0 60 0 0 48 1 47 21 -29 c30 -40 112 -76 173 -75 87 0 147 30 186 94
l19 30 0 -57 0 -58 60 0 60 0 0 113 c0 125 9 147 63 147 45 0 57 -31 57 -152
l0 -108 60 0 60 0 0 111 c0 129 7 149 55 149 54 0 65 -25 65 -152 l0 -108 61
0 60 0 -3 135 c-2 74 -2 135 -1 135 1 0 29 -48 62 -107 l59 -107 -59 -118 -59
-118 69 0 69 0 133 257 c74 141 136 260 137 265 2 4 -28 8 -66 8 l-69 0 -38
-85 c-21 -47 -41 -85 -44 -85 -4 0 -27 38 -51 85 l-45 85 -69 0 c-53 0 -67 -3
-63 -13 4 -10 -6 -8 -31 5 -49 25 -111 19 -156 -16 -30 -23 -35 -24 -47 -10
-38 46 -137 57 -178 20 -22 -20 -31 -20 -31 -1 0 12 -13 15 -60 15 l-60 0 0
-57 0 -58 -20 32 c-66 109 -242 124 -336 29 l-42 -42 -14 31 c-16 36 -87 75
-138 75 -19 0 -49 -9 -67 -20 l-32 -19 -3 132 -3 132 -57 3 -58 3 0 -121z
m-626 -196 c9 -4 21 -15 27 -25 9 -18 5 -19 -56 -19 -50 0 -65 3 -65 15 0 27
55 44 94 29z m624 -94 l3 -76 -28 -2 c-36 -3 -43 11 -43 91 l0 68 33 -3 32 -3
3 -75z m623 51 c44 -44 33 -108 -21 -131 -55 -23 -110 14 -110 73 0 80 75 113
131 58z m-1006 -91 c21 0 54 -31 49 -45 -8 -21 -53 -19 -91 5 -32 19 -33 19
-43 0 -10 -19 -11 -19 -55 2 -42 20 -45 21 -63 5 -27 -24 -97 -22 -122 3 -11
11 -20 27 -20 35 0 13 21 15 130 15 110 0 130 2 130 15 0 12 8 10 37 -10 21
-14 42 -25 48 -25z"/>
<path d="M2422 2220 c0 -39 2 -47 7 -26 8 38 31 47 31 12 0 -13 5 -28 11 -31
7 -5 9 5 7 26 -2 26 -8 35 -25 37 -12 2 -24 11 -26 20 -3 9 -5 -8 -5 -38z"/>
<path d="M2278 2247 c-8 -22 7 -70 22 -75 12 -4 13 -2 3 9 -15 15 -17 46 -4
51 5 2 3 8 -4 15 -10 9 -14 9 -17 0z"/>
<path d="M2758 2249 c-2 -6 -2 -26 0 -45 3 -24 9 -34 21 -33 10 0 11 2 4 6
-15 5 -18 50 -4 55 5 2 3 8 -4 15 -9 9 -15 9 -17 2z"/>
<path d="M1775 2220 c-9 -27 11 -50 41 -48 20 2 24 8 24 35 0 30 -3 33 -29 33
-21 0 -32 -6 -36 -20z m50 -15 c0 -28 -29 -25 -33 3 -3 19 0 23 15 20 10 -2
18 -12 18 -23z"/>
<path d="M1954 2226 c-15 -38 22 -74 49 -47 7 7 4 8 -10 5 -12 -3 -24 -1 -27
5 -5 7 3 11 19 11 20 0 26 4 23 18 -4 22 -46 29 -54 8z m46 -6 c0 -5 -7 -10
-15 -10 -8 0 -15 5 -15 10 0 6 7 10 15 10 8 0 15 -4 15 -10z"/>
<path d="M2120 2226 c0 -7 10 -21 23 -30 l22 -17 -22 5 c-13 2 -23 0 -23 -5 0
-13 38 -11 46 2 4 7 -3 20 -16 29 -22 17 -23 18 -4 23 16 4 16 5 -3 6 -14 1
-23 -5 -23 -13z"/>
<path d="M2585 2220 c-4 -12 -1 -27 5 -35 14 -16 50 -20 50 -6 0 5 -9 7 -20 4
-11 -3 -20 0 -20 6 0 6 8 11 18 11 24 0 32 8 25 26 -8 22 -51 17 -58 -6z m45
0 c0 -5 -7 -10 -15 -10 -8 0 -15 5 -15 10 0 6 7 10 15 10 8 0 15 -4 15 -10z"/>
<path d="M2890 2211 c0 -17 5 -33 10 -36 6 -4 10 8 10 29 0 20 -4 36 -10 36
-5 0 -10 -13 -10 -29z"/>
<path d="M3015 2220 c-4 -12 -1 -27 5 -35 14 -16 50 -20 50 -6 0 5 -8 7 -19 4
-19 -5 -34 16 -23 34 4 6 16 13 27 16 16 4 14 5 -7 6 -19 1 -29 -5 -33 -19z"/>
<path d="M3180 2225 c0 -9 7 -18 15 -21 24 -10 17 -26 -7 -19 -18 6 -20 4 -12
-5 14 -15 46 -10 52 8 2 7 -5 16 -17 19 -26 7 -27 20 -3 26 13 4 11 5 -5 6
-15 1 -23 -5 -23 -14z"/>
</g>
</svg>
