<svg width="263" height="78" viewBox="0 0 263 78" fill="none" xmlns="http://www.w3.org/2000/svg">
<path d="M37.5554 43.158H12.1595C12.1595 45.6164 12.9564 47.4393 14.5554 48.6164C16.1491 49.7987 17.8783 50.3872 19.7429 50.3872C21.7012 50.3872 23.2481 50.132 24.3887 49.6164C25.5241 49.0903 26.8262 48.0487 28.2845 46.4914L37.0137 50.8664C33.3731 56.9653 27.3158 60.0122 18.847 60.0122C13.5658 60.0122 9.03975 58.2101 5.26371 54.5955C1.48246 50.9705 -0.402954 46.6112 -0.402954 41.5122C-0.402954 36.4185 1.48246 32.0487 5.26371 28.408C9.03975 24.7726 13.5658 22.9497 18.847 22.9497C24.3991 22.9497 28.92 24.5539 32.4095 27.7622C35.8939 30.9705 37.6387 35.5539 37.6387 41.5122C37.6387 42.3351 37.6075 42.882 37.5554 43.158ZM12.5137 36.4705H25.8262C25.545 34.6528 24.8262 33.257 23.6595 32.283C22.5033 31.2987 21.0189 30.8039 19.2012 30.8039C17.2012 30.8039 15.6023 31.3247 14.4095 32.3664C13.2273 33.408 12.597 34.7778 12.5137 36.4705Z" fill="black"/>
<path d="M52.0924 22.9497C54.1028 22.9497 56.082 23.1789 58.0299 23.6372C59.9882 24.0851 61.4466 24.533 62.4049 24.9914L63.8424 25.6789L59.8841 33.5955C57.1445 32.1372 54.5507 31.408 52.0924 31.408C50.7278 31.408 49.7643 31.5643 49.1966 31.8664C48.6237 32.158 48.3424 32.7153 48.3424 33.533C48.3424 33.7153 48.3632 33.8976 48.4049 34.0747C48.457 34.257 48.5507 34.4289 48.6757 34.5955C48.8112 34.7518 48.9362 34.882 49.0507 34.9914C49.1757 35.106 49.3684 35.231 49.6341 35.3664C49.9101 35.507 50.1237 35.6112 50.2799 35.6789C50.4466 35.7518 50.707 35.856 51.0716 35.9914C51.4309 36.1164 51.7018 36.2153 51.8841 36.283C52.0768 36.356 52.3893 36.4601 52.8216 36.5955C53.2487 36.7362 53.5768 36.8247 53.8007 36.8664C55.2174 37.283 56.4466 37.7414 57.4882 38.2414C58.5403 38.7414 59.6445 39.4237 60.8007 40.283C61.9674 41.1476 62.8684 42.2362 63.5091 43.5539C64.1445 44.8768 64.4674 46.382 64.4674 48.0747C64.4674 56.033 58.9309 60.0122 47.8632 60.0122C45.3632 60.0122 42.9882 59.6268 40.7382 58.8664C38.4882 58.0903 36.8528 57.3143 35.8424 56.533L34.3424 55.3039L39.2591 47.0539C39.6341 47.3612 40.1132 47.7362 40.6966 48.1789C41.2903 48.6112 42.3632 49.1997 43.9049 49.9497C45.457 50.6997 46.8007 51.0747 47.9257 51.0747C50.4362 51.0747 51.6966 50.2362 51.6966 48.5539C51.6966 47.7778 51.3737 47.1737 50.7382 46.7414C50.0976 46.3143 49.0143 45.8247 47.4882 45.283C45.957 44.731 44.7643 44.2205 43.9049 43.7622C41.7226 42.6268 39.9934 41.3403 38.7174 39.908C37.4362 38.481 36.8007 36.5747 36.8007 34.1997C36.8007 30.658 38.1757 27.9028 40.9257 25.9289C43.6862 23.9445 47.4101 22.9497 52.0924 22.9497Z" fill="black"/>
<path d="M66.0936 23.9705V10.9288H78.177V23.9705H85.552V33.1788H78.177V44.3038C78.177 47.5434 79.0832 49.158 80.9061 49.158C81.3645 49.158 81.8436 49.0695 82.3436 48.8872C82.8436 48.7101 83.229 48.5278 83.5103 48.3455L83.9061 48.0747L86.9061 57.8247C84.3228 59.283 81.3645 60.0122 78.0311 60.0122C75.7655 60.0122 73.8124 59.6163 72.177 58.8247C70.5363 58.0226 69.2915 56.9497 68.4478 55.6163C67.5988 54.2726 66.9947 52.8611 66.6353 51.3872C66.2707 49.9028 66.0936 48.3195 66.0936 46.6372V33.1788H61.0311V23.9705H66.0936Z" fill="black"/>
<path d="M84.598 58.9914V0.283081H96.6814V27.6581H96.8064C99.9418 24.5227 103.291 22.9497 106.848 22.9497C108.567 22.9497 110.286 23.1789 111.994 23.6372C113.702 24.0852 115.338 24.7831 116.911 25.7414C118.478 26.6997 119.749 28.0539 120.723 29.8039C121.707 31.5539 122.202 33.5904 122.202 35.9081V58.9914H110.119V39.1997C110.119 37.382 109.536 35.7935 108.369 34.4289C107.213 33.0539 105.707 32.3664 103.848 32.3664C102.025 32.3664 100.374 33.0747 98.8897 34.4914C97.4157 35.8977 96.6814 37.4654 96.6814 39.1997V58.9914H84.598Z" fill="black"/>
<path d="M126.595 54.8247C122.704 51.3664 120.761 46.9289 120.761 41.5122C120.761 36.0955 122.787 31.6528 126.845 28.1789C130.897 24.6945 135.907 22.9497 141.865 22.9497C147.74 22.9497 152.688 24.6997 156.72 28.1997C160.746 31.6997 162.761 36.1372 162.761 41.5122C162.761 46.8872 160.787 51.3195 156.845 54.8039C152.912 58.2778 147.917 60.0122 141.865 60.0122C135.584 60.0122 130.496 58.283 126.595 54.8247ZM135.949 35.5747C134.376 37.1164 133.595 39.0955 133.595 41.5122C133.595 43.9289 134.345 45.9028 135.845 47.4289C137.355 48.9445 139.345 49.6997 141.803 49.6997C144.162 49.6997 146.105 48.9289 147.636 47.3872C149.162 45.8351 149.928 43.8768 149.928 41.5122C149.928 39.0955 149.141 37.1164 147.574 35.5747C146.001 34.033 144.079 33.2622 141.803 33.2622C139.48 33.2622 137.532 34.033 135.949 35.5747Z" fill="black"/>
<path d="M162.008 58.9914V23.9705H174.091V27.658H174.216C177.351 24.5226 180.7 22.9497 184.258 22.9497C186.799 22.9497 189.185 23.4705 191.424 24.5122C193.659 25.5539 195.346 27.1737 196.487 29.3664C200.028 25.0903 203.893 22.9497 208.091 22.9497C211.81 22.9497 215.013 24.0018 217.695 26.0955C220.388 28.1789 221.737 31.4497 221.737 35.908V58.9914H209.653V39.1997C209.653 37.3247 209.138 35.7622 208.112 34.5122C207.08 33.2622 205.549 32.6372 203.508 32.6372C201.726 32.6372 200.372 33.1737 199.445 34.2414C198.513 35.3143 197.997 36.5955 197.903 38.0955V58.9914H185.82V39.1997C185.82 37.3247 185.304 35.7622 184.278 34.5122C183.263 33.2622 181.726 32.6372 179.674 32.6372C177.81 32.6372 176.414 33.2205 175.487 34.3872C174.554 35.5435 174.091 36.9185 174.091 38.5122V58.9914H162.008Z" fill="black"/>
<path d="M249.372 23.9706H263.31L235.789 76.7414H221.872L233.955 53.5331L217.351 23.9706H231.289L241.06 41.9289L249.372 23.9706Z" fill="black"/>
<path d="M63.5975 70.2009C63.7902 70.2009 63.9517 70.2634 64.0767 70.3884C64.2017 70.503 64.2642 70.6592 64.2642 70.8676V76.8259C64.2642 77.0238 64.2017 77.1801 64.0767 77.3051C63.9517 77.4301 63.7902 77.4926 63.5975 77.4926C63.4152 77.4926 63.2642 77.4301 63.1392 77.3051C63.0142 77.1801 62.9517 77.0238 62.9517 76.8259V76.4717C62.7121 76.7946 62.3892 77.0707 61.9725 77.3051C61.5662 77.5238 61.1235 77.6384 60.6392 77.6384C60.0246 77.6384 59.4621 77.4821 58.9517 77.1592C58.436 76.8259 58.035 76.378 57.7433 75.8051C57.4621 75.2373 57.3267 74.5915 57.3267 73.8676C57.3267 73.1592 57.4621 72.5238 57.7433 71.9509C58.035 71.3676 58.4308 70.9196 58.9308 70.5967C59.4412 70.279 59.9985 70.1176 60.5975 70.1176C61.0819 70.1176 61.535 70.2217 61.9517 70.4301C62.3787 70.628 62.7121 70.8832 62.9517 71.2009V70.8676C62.9517 70.6748 63.0142 70.5134 63.1392 70.3884C63.2642 70.2634 63.4152 70.2009 63.5975 70.2009ZM60.8058 76.4301C61.2329 76.4301 61.6183 76.3207 61.9517 76.0967C62.285 75.878 62.5402 75.5707 62.7225 75.1801C62.9152 74.7946 63.0142 74.3571 63.0142 73.8676C63.0142 73.3988 62.9152 72.9717 62.7225 72.5967C62.5402 72.2113 62.285 71.904 61.9517 71.6801C61.6183 71.4457 61.2329 71.3259 60.8058 71.3259C60.3735 71.3259 59.9933 71.4405 59.66 71.6592C59.3267 71.8832 59.061 72.1905 58.8683 72.5759C58.6704 72.9509 58.5767 73.3832 58.5767 73.8676C58.5767 74.3571 58.6704 74.7946 58.8683 75.1801C59.061 75.5707 59.3267 75.878 59.66 76.0967C59.9933 76.3207 60.3735 76.4301 60.8058 76.4301Z" fill="black"/>
<path d="M81.4698 73.6176C81.4698 73.7842 81.3969 73.9248 81.2615 74.0342C81.1365 74.1488 80.9907 74.2009 80.824 74.2009H75.9698C76.0376 74.8676 76.2928 75.4092 76.7407 75.8259C77.1834 76.2321 77.7251 76.4301 78.3657 76.4301C78.8084 76.4301 79.1678 76.3676 79.449 76.2426C79.7251 76.1071 79.9698 75.9405 80.1782 75.7426C80.3136 75.6592 80.449 75.6176 80.574 75.6176C80.7251 75.6176 80.8501 75.6748 80.949 75.7842C81.0584 75.8832 81.1157 76.0082 81.1157 76.1592C81.1157 76.3571 81.0219 76.529 80.8448 76.6801C80.5792 76.9457 80.2251 77.1748 79.7823 77.3676C79.3501 77.5446 78.9073 77.6384 78.449 77.6384C77.699 77.6384 77.0376 77.4873 76.4698 77.1801C75.9126 76.8623 75.4803 76.4248 75.1782 75.8676C74.8709 75.2998 74.7198 74.6592 74.7198 73.9509C74.7198 73.1905 74.8709 72.5134 75.1782 71.9301C75.4959 71.3467 75.9126 70.904 76.4282 70.5967C76.9542 70.279 77.5167 70.1176 78.1157 70.1176C78.699 70.1176 79.2459 70.2738 79.7615 70.5759C80.2719 70.8832 80.6834 71.2998 80.9907 71.8259C81.3084 72.3571 81.4698 72.9509 81.4698 73.6176ZM78.1157 71.3259C77.6001 71.3259 77.1573 71.4717 76.7823 71.7634C76.4073 72.0551 76.1573 72.503 76.0323 73.0967H80.0948V72.9926C80.0532 72.5082 79.8292 72.1123 79.4282 71.8051C79.0376 71.4873 78.6001 71.3259 78.1157 71.3259Z" fill="black"/>
<path d="M91.5295 76.3676C91.4462 76.2426 91.4045 76.1176 91.4045 75.9926C91.4045 75.8155 91.4983 75.6592 91.6962 75.5342C91.79 75.4665 91.8941 75.4301 92.0087 75.4301C92.1754 75.4301 92.3264 75.503 92.467 75.6384C92.7431 75.9457 93.0347 76.1801 93.342 76.3467C93.6597 76.503 94.04 76.5759 94.4879 76.5759C94.8316 76.5655 95.1389 76.4821 95.4045 76.3259C95.665 76.1748 95.8004 75.9301 95.8004 75.5967C95.8004 75.279 95.6597 75.0446 95.3837 74.8884C95.1181 74.7217 94.7275 74.5707 94.217 74.4301C93.7014 74.2946 93.2691 74.1488 92.9254 73.9926C92.592 73.8415 92.3056 73.628 92.0712 73.3467C91.8316 73.0551 91.717 72.6748 91.717 72.2009C91.717 71.7842 91.8316 71.4248 92.0712 71.1176C92.3056 70.7998 92.6181 70.5551 93.0087 70.3884C93.3941 70.2113 93.8212 70.1176 94.2795 70.1176C94.7222 70.1176 95.1597 70.2009 95.592 70.3676C96.0191 70.5342 96.3733 70.7842 96.6545 71.1176C96.7639 71.2582 96.8212 71.3988 96.8212 71.5342C96.8212 71.6748 96.7483 71.8155 96.6129 71.9509C96.5139 72.0342 96.3941 72.0759 96.2587 72.0759C96.092 72.0759 95.9566 72.0238 95.8629 71.9092C95.665 71.6905 95.4306 71.5238 95.1545 71.4092C94.8733 71.2842 94.5608 71.2217 94.217 71.2217C93.8681 71.2217 93.5712 71.2946 93.3212 71.4301C93.0816 71.5707 92.967 71.8155 92.967 72.1592C92.9775 72.4821 93.1181 72.7165 93.3837 72.8676C93.6597 73.0238 94.0764 73.1748 94.6337 73.3259C95.1181 73.4509 95.5191 73.5915 95.842 73.7426C96.1597 73.8832 96.4306 74.0967 96.6545 74.3884C96.8733 74.6801 96.9879 75.0655 96.9879 75.5342C96.9879 75.9665 96.8629 76.3415 96.6129 76.6592C96.3629 76.9665 96.0347 77.2113 95.6337 77.3884C95.2431 77.5551 94.8264 77.6384 94.3837 77.6384C93.8004 77.6384 93.2587 77.5394 92.7587 77.3467C92.2691 77.1384 91.8629 76.8155 91.5295 76.3676Z" fill="black"/>
<path d="M109.416 71.5759V75.6592C109.416 76.1176 109.614 76.3467 110.02 76.3467C110.088 76.3467 110.177 76.3363 110.291 76.3051C110.401 76.279 110.484 76.2634 110.541 76.2634C110.666 76.2634 110.77 76.3155 110.854 76.4092C110.937 76.5082 110.979 76.6332 110.979 76.7842C110.979 76.9821 110.864 77.1488 110.645 77.2842C110.421 77.4248 110.171 77.4926 109.895 77.4926C109.604 77.4926 109.322 77.4665 109.062 77.4092C108.812 77.3415 108.588 77.1748 108.395 76.9092C108.197 76.6488 108.104 76.253 108.104 75.7217V71.5759H107.312C107.13 71.5759 106.984 71.5238 106.875 71.4092C106.76 71.2842 106.708 71.1332 106.708 70.9509C106.708 70.7842 106.76 70.6488 106.875 70.5342C106.984 70.4248 107.13 70.3676 107.312 70.3676H108.104V69.2217C108.104 69.029 108.166 68.8676 108.291 68.7426C108.416 68.6176 108.572 68.5551 108.77 68.5551C108.947 68.5551 109.104 68.6176 109.229 68.7426C109.354 68.8676 109.416 69.029 109.416 69.2217V70.3676H110.541C110.718 70.3676 110.864 70.4301 110.979 70.5551C111.088 70.6696 111.145 70.8051 111.145 70.9717C111.145 71.154 111.088 71.2998 110.979 71.4092C110.864 71.5238 110.718 71.5759 110.541 71.5759H109.416Z" fill="black"/>
<path d="M125.221 70.1593C126.83 70.1593 127.637 71.1593 127.637 73.1593V76.8259C127.637 77.0238 127.575 77.1801 127.45 77.3051C127.325 77.4301 127.168 77.4926 126.991 77.4926C126.793 77.4926 126.637 77.4301 126.512 77.3051C126.398 77.1801 126.346 77.0238 126.346 76.8259V73.1593C126.346 71.9666 125.835 71.3676 124.825 71.3676C124.283 71.3676 123.83 71.5447 123.471 71.8884C123.122 72.2374 122.95 72.6593 122.95 73.1593V76.8259C122.95 77.0238 122.887 77.1801 122.762 77.3051C122.637 77.4301 122.476 77.4926 122.283 77.4926C122.085 77.4926 121.929 77.4301 121.804 77.3051C121.689 77.1801 121.637 77.0238 121.637 76.8259V67.9718C121.637 67.7947 121.7 67.6384 121.825 67.5134C121.95 67.3884 122.101 67.3259 122.283 67.3259C122.476 67.3259 122.637 67.3884 122.762 67.5134C122.887 67.6384 122.95 67.7947 122.95 67.9718V71.4509C123.168 71.1072 123.481 70.8051 123.887 70.5551C124.304 70.2947 124.747 70.1593 125.221 70.1593Z" fill="black"/>
<path d="M144.862 73.6176C144.862 73.7842 144.789 73.9248 144.654 74.0342C144.529 74.1488 144.383 74.2009 144.216 74.2009H139.362C139.43 74.8676 139.685 75.4092 140.133 75.8259C140.576 76.2321 141.117 76.4301 141.758 76.4301C142.201 76.4301 142.56 76.3676 142.841 76.2426C143.117 76.1071 143.362 75.9405 143.571 75.7426C143.706 75.6592 143.841 75.6176 143.966 75.6176C144.117 75.6176 144.242 75.6748 144.341 75.7842C144.451 75.8832 144.508 76.0082 144.508 76.1592C144.508 76.3571 144.414 76.529 144.237 76.6801C143.972 76.9457 143.617 77.1748 143.175 77.3676C142.742 77.5446 142.3 77.6384 141.841 77.6384C141.091 77.6384 140.43 77.4873 139.862 77.1801C139.305 76.8623 138.873 76.4248 138.571 75.8676C138.263 75.2998 138.112 74.6592 138.112 73.9509C138.112 73.1905 138.263 72.5134 138.571 71.9301C138.888 71.3467 139.305 70.904 139.821 70.5967C140.347 70.279 140.909 70.1176 141.508 70.1176C142.091 70.1176 142.638 70.2738 143.154 70.5759C143.664 70.8832 144.076 71.2998 144.383 71.8259C144.701 72.3571 144.862 72.9509 144.862 73.6176ZM141.508 71.3259C140.992 71.3259 140.55 71.4717 140.175 71.7634C139.8 72.0551 139.55 72.503 139.425 73.0967H143.487V72.9926C143.446 72.5082 143.222 72.1123 142.821 71.8051C142.43 71.4873 141.992 71.3259 141.508 71.3259Z" fill="black"/>
<path d="M157.297 71.5759V75.6592C157.297 76.1176 157.495 76.3467 157.901 76.3467C157.969 76.3467 158.057 76.3363 158.172 76.3051C158.281 76.279 158.365 76.2634 158.422 76.2634C158.547 76.2634 158.651 76.3155 158.734 76.4092C158.818 76.5082 158.859 76.6332 158.859 76.7842C158.859 76.9821 158.745 77.1488 158.526 77.2842C158.302 77.4248 158.052 77.4926 157.776 77.4926C157.484 77.4926 157.203 77.4665 156.943 77.4092C156.693 77.3415 156.469 77.1748 156.276 76.9092C156.078 76.6488 155.984 76.253 155.984 75.7217V71.5759H155.193C155.01 71.5759 154.865 71.5238 154.755 71.4092C154.641 71.2842 154.589 71.1332 154.589 70.9509C154.589 70.7842 154.641 70.6488 154.755 70.5342C154.865 70.4248 155.01 70.3676 155.193 70.3676H155.984V69.2217C155.984 69.029 156.047 68.8676 156.172 68.7426C156.297 68.6176 156.453 68.5551 156.651 68.5551C156.828 68.5551 156.984 68.6176 157.109 68.7426C157.234 68.8676 157.297 69.029 157.297 69.2217V70.3676H158.422C158.599 70.3676 158.745 70.4301 158.859 70.5551C158.969 70.6696 159.026 70.8051 159.026 70.9717C159.026 71.154 158.969 71.2998 158.859 71.4092C158.745 71.5238 158.599 71.5759 158.422 71.5759H157.297Z" fill="black"/>
<path d="M170.747 76.8259C170.747 77.0238 170.685 77.1801 170.56 77.3051C170.435 77.4301 170.278 77.4926 170.101 77.4926C169.903 77.4926 169.747 77.4301 169.622 77.3051C169.507 77.1801 169.455 77.0238 169.455 76.8259V70.8884C169.455 70.6957 169.507 70.5343 169.622 70.4093C169.747 70.2843 169.903 70.2218 170.101 70.2218C170.278 70.2218 170.435 70.2843 170.56 70.4093C170.685 70.5343 170.747 70.6957 170.747 70.8884V76.8259ZM170.08 69.3051C169.815 69.3051 169.627 69.2582 169.518 69.1593C169.403 69.0655 169.351 68.9093 169.351 68.7009V68.4926C169.351 68.2738 169.414 68.1176 169.539 68.0343C169.664 67.9405 169.851 67.8884 170.101 67.8884C170.351 67.8884 170.528 67.9405 170.643 68.0343C170.768 68.1332 170.83 68.2843 170.83 68.4926V68.7009C170.83 68.9249 170.768 69.0863 170.643 69.1801C170.528 69.2634 170.341 69.3051 170.08 69.3051Z" fill="black"/>
<path d="M184.721 70.1176C185.44 70.1176 186.044 70.2373 186.533 70.4717C187.018 70.6957 187.263 70.9873 187.263 71.3467C187.263 71.503 187.205 71.6384 187.096 71.7634C186.997 71.8884 186.872 71.9509 186.721 71.9509C186.596 71.9509 186.497 71.9405 186.429 71.9092C186.372 71.8676 186.283 71.8051 186.158 71.7217C186.101 71.6696 186.013 71.6071 185.888 71.5342C185.789 71.4821 185.638 71.4301 185.429 71.3884C185.221 71.3467 185.039 71.3259 184.888 71.3259C184.398 71.3259 183.971 71.4405 183.596 71.6592C183.231 71.8832 182.95 72.1905 182.742 72.5759C182.544 72.9665 182.45 73.3988 182.45 73.8676C182.45 74.3571 182.544 74.7946 182.742 75.1801C182.95 75.5707 183.226 75.878 183.575 76.0967C183.934 76.3207 184.346 76.4301 184.804 76.4301C185.289 76.4301 185.679 76.3571 185.971 76.2009C186.023 76.1592 186.106 76.0967 186.221 76.0134C186.315 75.9457 186.398 75.8988 186.471 75.8676C186.539 75.8259 186.622 75.8051 186.721 75.8051C186.898 75.8051 187.039 75.8623 187.138 75.9717C187.247 76.0863 187.304 76.2373 187.304 76.4301C187.304 76.6123 187.179 76.7998 186.929 76.9926C186.69 77.1748 186.372 77.3259 185.971 77.4509C185.565 77.5759 185.127 77.6384 184.658 77.6384C183.961 77.6384 183.346 77.4821 182.804 77.1592C182.273 76.8259 181.867 76.378 181.575 75.8051C181.294 75.2217 181.158 74.5759 181.158 73.8676C181.158 73.1748 181.304 72.5446 181.596 71.9717C181.898 71.3884 182.325 70.9405 182.867 70.6176C183.408 70.2842 184.023 70.1176 184.721 70.1176Z" fill="black"/>
<path d="M197.199 76.3676C197.116 76.2426 197.074 76.1176 197.074 75.9926C197.074 75.8155 197.168 75.6592 197.366 75.5342C197.459 75.4665 197.564 75.4301 197.678 75.4301C197.845 75.4301 197.996 75.503 198.136 75.6384C198.413 75.9457 198.704 76.1801 199.011 76.3467C199.329 76.503 199.709 76.5759 200.157 76.5759C200.501 76.5655 200.808 76.4821 201.074 76.3259C201.334 76.1748 201.47 75.9301 201.47 75.5967C201.47 75.279 201.329 75.0446 201.053 74.8884C200.788 74.7217 200.397 74.5707 199.886 74.4301C199.371 74.2946 198.939 74.1488 198.595 73.9926C198.261 73.8415 197.975 73.628 197.741 73.3467C197.501 73.0551 197.386 72.6748 197.386 72.2009C197.386 71.7842 197.501 71.4248 197.741 71.1176C197.975 70.7998 198.288 70.5551 198.678 70.3884C199.064 70.2113 199.491 70.1176 199.949 70.1176C200.392 70.1176 200.829 70.2009 201.261 70.3676C201.689 70.5342 202.043 70.7842 202.324 71.1176C202.433 71.2582 202.491 71.3988 202.491 71.5342C202.491 71.6748 202.418 71.8155 202.282 71.9509C202.183 72.0342 202.064 72.0759 201.928 72.0759C201.761 72.0759 201.626 72.0238 201.532 71.9092C201.334 71.6905 201.1 71.5238 200.824 71.4092C200.543 71.2842 200.23 71.2217 199.886 71.2217C199.538 71.2217 199.241 71.2946 198.991 71.4301C198.751 71.5707 198.636 71.8155 198.636 72.1592C198.647 72.4821 198.788 72.7165 199.053 72.8676C199.329 73.0238 199.746 73.1748 200.303 73.3259C200.788 73.4509 201.189 73.5915 201.511 73.7426C201.829 73.8832 202.1 74.0967 202.324 74.3884C202.543 74.6801 202.657 75.0655 202.657 75.5342C202.657 75.9665 202.532 76.3415 202.282 76.6592C202.032 76.9665 201.704 77.2113 201.303 77.3884C200.913 77.5551 200.496 77.6384 200.053 77.6384C199.47 77.6384 198.928 77.5394 198.428 77.3467C197.939 77.1384 197.532 76.8155 197.199 76.3676Z" fill="black"/>
</svg>
